<svg id="esER9JMUCvh1" xmlns="http://www.w3.org/2000/svg" xmlns:xlink="http://www.w3.org/1999/xlink" viewBox="0 0 41 41" shape-rendering="geometricPrecision" text-rendering="geometricPrecision">
<style><![CDATA[
#esER9JMUCvh8_tr {animation: esER9JMUCvh8_tr__tr 3000ms linear infinite normal forwards}@keyframes esER9JMUCvh8_tr__tr { 0% {transform: translate(20.5px,20.5px) rotate(-360deg)} 100% {transform: translate(20.5px,20.5px) rotate(0deg)}}
]]></style>
<path d="M19.58,3.79c4.129765.01609,8.115877,1.517537,11.23,4.23c6.531918,5.861098,7.373156,15.793845,1.92,22.67-3.070704,3.81521-7.673477,6.074487-12.57,6.17-2.5,0-6.1-.68-8.92-3.94l-.93-1.08C3.55,23.95,-0.19,19.61,8.4,8.92c2.64-3.3,6.62-5.13,11.19-5.13Zm0-2.3c-4.87,0-9.61,1.94-12.87,6-10.2,12.73-4.36,18.43,2.92,26.97c2.624769,3.0749,6.487851,4.813837,10.53,4.74c5.22,0,10.68-2.59,14.22-7.03c6.236285-7.855159,5.271846-19.209238-2.2-25.9-3.486404-3.060226-7.961088-4.757765-12.6-4.78Z" fill="#0ff"/><path d="M21.1,40.52c-4.54,0-8.55-1.79-11.37-5.1l-.9-1.03C1.9,26.29,-3.58,19.93,6.79,6.99c6.38-8,18.78-8.62,27.05-1.37c7.9,6.92,8.92,19.26,2.33,27.51-3.599608,4.533887-9.013672,7.251894-14.8,7.43-.06-.04-.16-.04-.27-.04Zm-.56-37.7c-4.63,0-9.13,1.9-12.08,5.6-9.17,11.44-4.98,16.32,2,24.43l.92,1.07c2.44,2.87,6,4.41,9.99,4.34c4.9-.07,9.95-2.62,13.15-6.6c5.8-7.32,4.87-18.19-2.1-24.28-3.2732-2.914951-7.497054-4.536229-11.88-4.56Z" fill="#0d7fff"/><path d="M20.16,39.91c-4.39,0-8.34-1.76-11.08-4.98l-.9-1.04C1.35,25.96,-4.04,19.68,6.16,6.99c6.25-7.83,18.4-8.44,26.53-1.34c7.76,6.78,8.76,18.87,2.27,26.98-3.57,4.48-9,7.21-14.52,7.28h-.28Zm-.51-37.7c-4.74,0-9.34,1.94-12.36,5.74-9.4,11.7-4.87,16.97,1.96,24.93l.9,1.08c2.579226,2.950781,6.342537,4.59402,10.26,4.48c5.241654-.184191,10.142266-2.645453,13.42-6.74c5.97-7.46,5-18.58-2.1-24.83-3.326693-2.969522-7.620876-4.626052-12.08-4.66Z" fill="#110223"/><path d="M14.2,20.33c0-3.3,2.63-5.96,5.83-6c1.4,0,2.67.47,3.67,1.3.38.32.45.9.17,1.32-.143382.193871-.358563.322097-.597308.355935s-.481084-.029543-.672692-.175935c-1.618289-1.293359-3.948959-1.168655-5.42.29-1.545409,1.628368-1.545409,4.181632,0,5.81.760939.749435,1.782067,1.175801,2.85,1.19c1,0,1.85-.33,2.57-.9.403606-.288241.962387-.209044,1.27.18.28.43.2,1-.17,1.33-1.034211.84706-2.333244,1.303668-3.67,1.29-3.253352-.081489-5.846453-2.745634-5.84-6Z" fill="#0ff"/><path d="M15.67,20.33c0-3.3,2.64-5.96,5.83-6c1.41,0,2.68.47,3.68,1.3.38.32.44.9.17,1.32-.143382.193871-.358563.322097-.597308.355935s-.481084-.029543-.672692-.175935c-1.618289-1.293359-3.948959-1.168655-5.42.29-1.545409,1.628368-1.545409,4.181632,0,5.81.758453.747062,1.775542,1.173237,2.84,1.19c1,0,1.86-.33,2.58-.9.403606-.288241.962387-.209044,1.27.18.27.43.2,1-.17,1.32-1.035471.852875-2.338575,1.31321-3.68,1.3-3.247135-.092039-5.831304-2.751561-5.83-6Z" fill="#0d7fff"/><path d="M14.95,20.33c0-3.3,2.64-5.96,5.83-6c1.4,0,2.68.47,3.67,1.3.38.32.45.9.18,1.32-.143382.193871-.358563.322097-.597308.355935s-.481084-.029543-.672692-.175935c-1.618289-1.293359-3.948959-1.168655-5.42.29-1.545409,1.628368-1.545409,4.181632,0,5.81.758453.747062,1.775542,1.173237,2.84,1.19c1,0,1.86-.33,2.58-.9.403606-.288241.962387-.209044,1.27.18.27.43.2,1-.18,1.32-1.032831.850657-2.332002,1.310854-3.67,1.3-3.256354-.070966-5.852633-2.742951-5.83-6Z"/><g id="esER9JMUCvh8_tr" transform="translate(20.5,20.5) rotate(-360)"><rect width="5.609202" height="4.335484" rx="0" ry="0" transform="scale(2.422615,3.131117) translate(-10.103191,-2.229845)" fill="#f8f8ff" stroke-width="0"/></g></svg>
